<?xml version="1.0" encoding="UTF-8" standalone="no"?>
<!-- Created with Inkscape (http://www.inkscape.org/) -->

<svg
   width="550"
   height="50"
   viewBox="0 0 145.52084 13.229167"
   version="1.1"
   id="svg5"
   sodipodi:docname="logo.svg"
   inkscape:version="1.3-dev (ea62cf6, 2022-09-19)"
   xmlns:inkscape="http://www.inkscape.org/namespaces/inkscape"
   xmlns:sodipodi="http://sodipodi.sourceforge.net/DTD/sodipodi-0.dtd"
   xmlns="http://www.w3.org/2000/svg"
   xmlns:svg="http://www.w3.org/2000/svg">
  <sodipodi:namedview
     id="namedview7"
     pagecolor="#ffffff"
     bordercolor="#000000"
     borderopacity="0.25"
     inkscape:showpageshadow="2"
     inkscape:pageopacity="0.0"
     inkscape:pagecheckerboard="0"
     inkscape:deskcolor="#d1d1d1"
     inkscape:document-units="mm"
     showgrid="false"
     inkscape:zoom="1.7814636"
     inkscape:cx="265.79269"
     inkscape:cy="147.35075"
     inkscape:window-width="1920"
     inkscape:window-height="1011"
     inkscape:window-x="2560"
     inkscape:window-y="32"
     inkscape:window-maximized="1"
     inkscape:current-layer="text788" />
  <defs
     id="defs2">
    <rect
       x="0"
       y="0"
       width="550"
       height="50"
       id="rect1" />
    <rect
       x="38.819035"
       y="217.32674"
       width="570.34137"
       height="112.87983"
       id="rect790" />
  </defs>
  <g
     inkscape:label="Calque 1"
     inkscape:groupmode="layer"
     id="layer1"
     transform="translate(-16.519393,-70.039311)">
    <g
       aria-label="EightOHat"
       transform="matrix(0.25636036,0,0,0.27049788,11.3533,4.5924427)"
       id="text788"
       style="font-size:74.6667px;letter-spacing:3.37px;white-space:pre;shape-inside:url(#rect790);fill:#a09897;stroke-width:0.623622">
      <g
         aria-label="WDR-8"
         transform="matrix(1.7351125,0,0,1.6444273,57.461712,225.90073)"
         id="text1"
         style="font-size:40px;line-height:1.25;shape-inside:url(#rect1);display:inline;fill:#000000;stroke:#000000;stroke-width:2.64605">
        <path
           d="m 44.2,12.767992 -13.2,24.4 h -7.12 l -2.52,-4.64 -2.48,4.64 h -7.12 l -13.24,-24.4 h 8.2 l 8.6,15.68 1.92,-3.52 -6.6,-12.16 h 8.2 l 2.52,4.64 2.56,-4.64 h 8.16 l -6.6,12.16 1.96,3.52 8.6,-15.68 z m -1.32,0.8 h -6.4 l -9.04,16.56 -2.84,-5.2 6.12,-11.36 h -6.36 l -3,5.48 -3,-5.48 H 12 l 6.16,11.36 -2.84,5.2 -9.08,-16.56 h -6.36 l 12.36,22.8 h 6.16 l 2.96,-5.52 3,5.52 h 6.16 z"
           style="font-family:BatmanForeverOutline;-inkscape-font-specification:BatmanForeverOutline"
           id="path1" />
        <path
           d="m 81.609934,25.007992 -6.92,12.2 h -24.24 v -24.4 h 24.24 z m -0.92,0 -6.44,-11.4 h -23 v 22.8 h 23 z m -6.76,0 -3.92,6.92 h -12.44 v -13.84 h 12.44 z m -0.92,0 -3.48,-6.12 h -11.16 v 12.24 h 11.16 z"
           style="font-family:BatmanForeverOutline;-inkscape-font-specification:BatmanForeverOutline"
           id="path2" />
        <path
           d="m 119.57985,20.447992 -4,5.44 3.92,3.92 v 7.36 h -7.92 v -5.96 l -1.92,-1.92 H 96.619846 v 7.88 h -7.92 v -24.36 h 25.240004 z m -0.88,15.92 v -6.2 l -4.2,-4.2 4.12,-5.52 -5.08,-6.84 H 89.499846 v 22.76 h 6.32 v -7.88 h 14.160004 l 2.4,2.36 v 5.52 z m -6.4,-15.44 -2.2,3 H 95.819846 v -5.88 h 14.280004 z m -1,0.04 -1.6,-2.12 H 96.619846 v 4.28 h 13.080004 z"
           style="font-family:BatmanForeverOutline;-inkscape-font-specification:BatmanForeverOutline"
           id="path3" />
        <path
           d="m 149.50984,23.007992 -3.4,6.08 h -20.28 l 3.4,-6.08 z m -1.36,0.8 h -18.44 l -2.52,4.48 h 18.44 z"
           style="font-family:BatmanForeverOutline;-inkscape-font-specification:BatmanForeverOutline"
           id="path4" />
        <path
           d="m 185.8798,29.487992 -5.64,7.64 h -20 l -5.64,-7.64 3.36,-4.56 -3.36,-4.56 5.64,-7.64 h 20 l 5.64,7.64 -3.36,4.56 z m -1,0 -3.36,-4.56 3.36,-4.56 -5.04,-6.84 h -19.2 l -5.08,6.84 3.4,4.56 -3.4,4.56 5.08,6.84 h 19.2 z m -6.8,-9.12 -2,2.56 h -11.68 l -2.04,-2.56 2.04,-2.36 h 11.64 z m 0,9.12 -2.04,2.4 h -11.64 l -2.04,-2.4 2.04,-2.56 h 11.68 z m -1.04,-9.08 -1.36,-1.6 h -10.88 l -1.4,1.6 1.4,1.72 h 10.88 z m 0,9.08 -1.36,-1.76 h -10.88 l -1.4,1.76 1.4,1.6 h 10.88 z"
           style="font-family:BatmanForeverOutline;-inkscape-font-specification:BatmanForeverOutline"
           id="path5" />
      </g>
    </g>
  </g>
</svg>
