<?xml version="1.0" encoding="UTF-8" standalone="no"?>
<!-- Created with Inkscape (http://www.inkscape.org/) -->

<svg
   width="550"
   height="50"
   viewBox="0 0 145.52084 13.229167"
   version="1.1"
   id="svg5"
   sodipodi:docname="logo.svg"
   inkscape:version="1.2.2 (b0a8486541, 2022-12-01)"
   xmlns:inkscape="http://www.inkscape.org/namespaces/inkscape"
   xmlns:sodipodi="http://sodipodi.sourceforge.net/DTD/sodipodi-0.dtd"
   xmlns="http://www.w3.org/2000/svg"
   xmlns:svg="http://www.w3.org/2000/svg">
  <sodipodi:namedview
     id="namedview7"
     pagecolor="#ffffff"
     bordercolor="#000000"
     borderopacity="0.25"
     inkscape:showpageshadow="2"
     inkscape:pageopacity="0.0"
     inkscape:pagecheckerboard="0"
     inkscape:deskcolor="#d1d1d1"
     inkscape:document-units="mm"
     showgrid="false"
     inkscape:zoom="1.7814636"
     inkscape:cx="265.79269"
     inkscape:cy="147.07008"
     inkscape:window-width="1920"
     inkscape:window-height="1011"
     inkscape:window-x="0"
     inkscape:window-y="32"
     inkscape:window-maximized="1"
     inkscape:current-layer="layer1" />
  <defs
     id="defs2">
    <rect
       x="38.819035"
       y="217.32674"
       width="570.34137"
       height="112.87983"
       id="rect790" />
  </defs>
  <g
     inkscape:label="Calque 1"
     inkscape:groupmode="layer"
     id="layer1"
     transform="translate(-16.519393,-70.039311)">
    <g
       aria-label="Mini Silver"
       transform="matrix(0.25636036,0,0,0.27049788,11.3533,4.5924427)"
       id="text788"
       style="font-size:74.6667px;letter-spacing:3.37px;white-space:pre;shape-inside:url(#rect790);fill:#a09897;stroke-width:0.623622">
      <path
         d="m 53.901033,289.73637 10.901339,-46.66669 h 18.517342 l 1.344001,23.74401 h 0.522666 l 9.706672,-23.74401 h 18.517337 l -5.52533,46.66669 H 93.026385 l 3.136002,-22.62401 H 95.63972 l -9.333338,22.62401 H 75.47971 l -1.568001,-22.62401 h -0.373333 l -4.853336,22.62401 z m 7.840004,-43.30669 -31.285348,-3.36 h 32.032015 z m -1.717334,7.168 -31.285348,-3.36 h 32.106682 z m -1.642668,7.16801 -31.360015,-3.36001 h 32.106682 z m -1.717334,7.168 -31.360015,-3.36 h 32.181349 z m -1.642667,7.168 -31.434682,-3.36 H 55.767701 Z M 53.3037,282.2697 21.869018,278.90969 h 32.256015 z m -1.642668,7.24267 -31.509348,-3.36001 h 32.256015 z"
         style="font-family:'Faster One';-inkscape-font-specification:'Faster One'"
         id="path3926" />
      <path
         d="m 133.80446,289.73637 6.86933,-39.49869 h 13.14134 l -6.944,39.49869 z m 3.88266,-36.13869 -31.65868,-3.36 h 32.18135 z m -1.26933,7.16801 -31.65868,-3.36001 h 32.25601 z m -1.26933,7.168 -31.65869,-3.36 h 32.25602 z m -1.26934,7.168 -31.65868,-3.36 h 32.25602 z m -1.26933,7.16801 -31.65868,-3.36001 h 32.25601 z m -1.26934,7.24267 -31.658677,-3.36001 h 32.256017 z"
         style="font-family:'Faster One';-inkscape-font-specification:'Faster One'"
         id="path3928" />
      <path
         d="m 173.6865,289.73637 6.86933,-39.49869 h 10.15468 l 7.76533,14.70934 h 0.448 l 2.53867,-14.70934 h 12.46934 l -6.944,39.49869 h -10.15467 l -7.69067,-14.78401 h -0.29867 l -2.61334,14.78401 z m 3.88267,-36.13869 -31.65869,-3.36 h 32.18135 z m -1.26934,7.16801 -31.65868,-3.36001 h 32.25602 z m -1.26933,7.168 -31.65868,-3.36 h 32.25601 z m -1.26934,7.168 -31.65868,-3.36 h 32.25602 z m -1.26933,7.16801 -31.65868,-3.36001 h 32.25601 z m -1.26933,7.24267 -31.65869,-3.36001 h 32.25602 z"
         style="font-family:'Faster One';-inkscape-font-specification:'Faster One'"
         id="path3930" />
      <path
         d="m 234.47513,289.73637 6.86933,-39.49869 h 13.14134 l -6.944,39.49869 z m 3.88266,-36.13869 -31.65868,-3.36 h 32.18135 z m -1.26933,7.16801 -31.65868,-3.36001 h 32.25601 z m -1.26933,7.168 -31.65869,-3.36 h 32.25602 z m -1.26934,7.168 -31.65868,-3.36 h 32.25602 z m -1.26933,7.16801 -31.65868,-3.36001 h 32.25601 z m -1.26934,7.24267 -31.65868,-3.36001 h 32.25602 z"
         style="font-family:'Faster One';-inkscape-font-specification:'Faster One'"
         id="path3932" />
      <path
         d="m 310.13257,290.85637 q -4.40533,0 -8.66133,-0.52267 -4.18134,-0.448 -8.13867,-1.41867 l 4.18133,-12.32 q 2.83734,0.74666 6.12267,1.26933 3.28534,0.448 6.19734,0.448 2.38933,0 4.18133,-0.0747 1.792,-0.14933 3.43467,-0.37333 l 0.59733,-3.73333 -6.19733,-0.59734 q -7.31734,-0.74667 -10.15467,-3.28533 -2.83734,-2.61334 -2.83734,-7.09334 0,-2.016 0.448,-4.48 1.19467,-6.34667 3.43467,-10.00534 2.31467,-3.65867 6.57067,-5.152 4.256,-1.568 11.27467,-1.568 4.10667,0 8.06401,0.448 3.95733,0.448 7.616,1.41866 l -3.88267,11.94668 q -2.912,-0.52267 -5.52533,-0.82134 -2.61334,-0.29866 -5.82401,-0.29866 -1.71733,0 -2.912,0.0747 -1.19467,0.0747 -2.912,0.29867 l -0.59733,3.65867 5.00267,0.52267 q 5.376,0.52266 8.43733,2.09066 3.06134,1.49334 4.33067,3.808 1.26934,2.24001 1.26934,5.22667 0,0.896 -0.14934,1.86667 -0.0747,0.896 -0.224,1.94134 -1.04533,6.048 -3.36,9.48267 -2.31467,3.43467 -5.45067,5.00267 -3.136,1.49333 -6.86934,1.86666 -3.65866,0.37334 -7.46667,0.37334 z m -8.58667,-44.72536 -28.82134,-3.06133 h 32.10668 q -0.97067,0.59733 -1.792,1.41866 -0.74667,0.74667 -1.49334,1.64267 z m -3.43467,7.39201 -30.98668,-3.28534 h 32.10669 z m -1.41866,7.24267 -31.65868,-3.36001 h 32.18134 q -0.0747,0.224 -0.14933,0.448 0,0.224 0,0.448 -0.0747,0.52267 -0.224,1.12001 -0.0747,0.59733 -0.14933,1.344 z m 0.59733,7.168 -31.58401,-3.36 h 30.98668 q 0.0747,0.97066 0.14933,1.792 0.14933,0.74667 0.448,1.568 z m 9.85601,7.168 -39.49869,-3.36 h 32.18135 q 2.464,2.38934 7.31734,3.36 z m -13.96268,7.09334 -26.80534,-3.28534 h 27.92534 z m -2.38933,7.24267 -25.68535,-3.28534 h 26.80535 z"
         style="font-family:'Faster One';-inkscape-font-specification:'Faster One'"
         id="path3934" />
      <path
         d="m 355.61461,289.73637 6.86933,-39.49869 h 13.14134 l -6.944,39.49869 z m 3.88266,-36.13869 -31.65868,-3.36 h 32.18135 z m -1.26933,7.16801 -31.65868,-3.36001 h 32.25601 z m -1.26933,7.168 -31.65868,-3.36 h 32.25601 z m -1.26934,7.168 -31.65868,-3.36 h 32.25602 z m -1.26933,7.16801 -31.65868,-3.36001 h 32.25601 z m -1.26934,7.24267 -31.65868,-3.36001 h 32.25602 z"
         style="font-family:'Faster One';-inkscape-font-specification:'Faster One'"
         id="path3936" />
      <path
         d="m 395.49666,289.73637 6.86933,-39.49869 h 13.14134 l -5.00267,28.52268 h 11.20001 l -1.94134,10.97601 z m 3.88266,-36.13869 -31.65868,-3.36 h 32.18135 z m -1.26933,7.16801 -31.65868,-3.36001 h 32.25601 z m -1.26933,7.168 -31.65869,-3.36 h 32.25602 z m -1.26934,7.168 -31.65868,-3.36 h 32.25602 z m -1.26933,7.16801 -31.65868,-3.36001 h 32.25601 z m -1.26934,7.24267 -31.65868,-3.36001 h 32.25602 z"
         style="font-family:'Faster One';-inkscape-font-specification:'Faster One'"
         id="path3938" />
      <path
         d="m 448.59465,289.73637 -2.16533,-39.49869 h 13.81334 v 22.54934 h 0.29867 l 8.66133,-22.54934 h 13.51468 l -15.97868,39.49869 z m -4.40533,-36.13869 -31.65868,-3.36 h 31.43468 z m 0.37333,7.16801 -31.58401,-3.36001 h 31.43468 z m 0.37333,7.168 -31.50934,-3.36 h 31.28534 z m 0.37334,7.168 -31.43468,-3.36 h 31.21068 z m 0.37333,7.16801 -31.43468,-3.36001 h 31.28535 z m 0.448,7.24267 -31.43468,-3.36001 h 31.21068 z"
         style="font-family:'Faster One';-inkscape-font-specification:'Faster One'"
         id="path3940" />
      <path
         d="m 498.70604,289.73637 6.86933,-39.49869 h 26.28268 l -3.50933,11.20001 h -12.17067 l -0.89601,5.07733 h 11.20001 l -1.26933,7.16801 h -11.12534 l -0.896,5.07733 h 13.81334 l -1.94134,10.97601 z m 3.88267,-36.13869 -31.65869,-3.36 h 32.18135 z m -1.26934,7.16801 -31.65868,-3.36001 h 32.25602 z m -1.26933,7.168 -31.65868,-3.36 h 32.25601 z m -1.26934,7.168 -31.65868,-3.36 h 32.25602 z m -1.26933,7.16801 -31.65868,-3.36001 h 32.25601 z m -1.26933,7.24267 -31.65869,-3.36001 h 32.25602 z"
         style="font-family:'Faster One';-inkscape-font-specification:'Faster One'"
         id="path3942" />
      <path
         d="m 551.05739,289.73637 6.86933,-39.49869 h 18.96534 q 4.18134,0 6.49601,1.26933 2.38933,1.26934 3.36,3.50934 1.04533,2.24 1.04533,5.07734 0,2.24 -0.672,5.45066 -0.59733,3.21067 -2.31466,6.27201 -1.64267,2.98667 -4.85334,4.77867 l 4.256,13.14134 h -13.96267 l -2.83734,-11.49868 h -1.792 l -2.016,11.49868 z m 3.88266,-36.13869 -31.65868,-3.36 h 32.18135 z m -1.26933,7.16801 -31.65868,-3.36001 h 32.25601 z m 13.73867,7.24267 h 2.38934 q 1.49333,0 2.53867,-0.37334 1.12,-0.448 1.344,-1.86667 l 0.448,-2.61333 q 0,-0.14933 0,-0.224 0.0747,-0.14933 0.0747,-0.224 0,-1.04533 -1.12,-1.26933 -1.04533,-0.29867 -2.83733,-0.29867 h -1.64267 z m -15.008,-0.0747 -31.65869,-3.36 h 32.25602 z m -1.26934,7.168 -31.65868,-3.36 h 32.25602 z m -1.26933,7.16801 -31.65868,-3.36001 h 32.25601 z m -1.26934,7.24267 -31.65868,-3.36001 h 32.25602 z"
         style="font-family:'Faster One';-inkscape-font-specification:'Faster One'"
         id="path3944" />
    </g>
  </g>
</svg>
